{
    "asset" : {
        "generator" : "Khronos Blender glTF 2.0 I/O",
        "version" : "2.0"
    },
    "scene" : 0,
    "scenes" : [
        {
            "name" : "Scene",
            "nodes" : [
                0
            ]
        }
    ],
    "nodes" : [
        {
            "mesh" : 0,
            "name" : "Charpente Ref",
            "translation" : [
                0,
                336.5063171386719,
                0
            ]
        }
    ],
    "meshes" : [
        {
            "name" : "Charpente Ref",
            "primitives" : [
                {
                    "attributes" : {
                        "POSITION" : 0,
                        "NORMAL" : 1
                    },
                    "indices" : 2
                }
            ]
        }
    ],
    "accessors" : [
        {
            "bufferView" : 0,
            "componentType" : 5126,
            "count" : 4045,
            "max" : [
                1030.756103515625,
                137.3220977783203,
                23.22834587097168
            ],
            "min" : [
                -1141.9910888671875,
                -304.3915100097656,
                -8.74191364642115e-15
            ],
            "type" : "VEC3"
        },
        {
            "bufferView" : 1,
            "componentType" : 5126,
            "count" : 4045,
            "type" : "VEC3"
        },
        {
            "bufferView" : 2,
            "componentType" : 5123,
            "count" : 8148,
            "type" : "SCALAR"
        }
    ],
    "bufferViews" : [
        {
            "buffer" : 0,
            "byteLength" : 48540,
            "byteOffset" : 0
        },
        {
            "buffer" : 0,
            "byteLength" : 48540,
            "byteOffset" : 48540
        },
        {
            "buffer" : 0,
            "byteLength" : 16296,
            "byteOffset" : 97080
        }
    ],
    "buffers" : [
        {
            "byteLength" : 113376,
            "uri" : "data:application/octet-stream;base64,"
        }
    ]
}
